<svg width="37" height="40" viewBox="0 0 37 40" fill="none" xmlns="http://www.w3.org/2000/svg">
<path d="M3.74194 0H33.1056V29.3629H3.74194V0Z" fill="white"/>
<path d="M24.5867 3.00977C23.2288 3.00977 22.128 4.11055 22.128 5.46843C22.128 6.82705 23.2288 7.9271 24.5867 7.9271C25.9445 7.9271 27.0453 6.82705 27.0453 5.46843C27.0453 4.11055 25.9445 3.00977 24.5867 3.00977ZM20.0247 7.91306C19.7048 7.91454 19.3982 8.04013 19.1699 8.26324L12.6775 14.4099C12.1227 14.9337 12.1729 15.8298 12.7831 16.2879L17.2107 19.6058V26.3671C17.1863 28.0301 19.693 28.0301 19.6693 26.3671V18.9911C19.6701 18.6047 19.4883 18.2398 19.1795 18.007L17.2919 16.5901L21.7623 12.3583L23.6019 14.8133C23.8353 15.1228 24.1995 15.3038 24.5867 15.3031H28.2747C29.9369 15.3282 29.9369 12.8215 28.2747 12.8444H25.2013L23.3573 10.3858L21.8827 8.41691C21.6618 8.11327 21.3131 7.9271 20.9371 7.91306H20.0247ZM7.376 17.7618C3.30236 17.7618 0 21.0649 0 25.1378C0 29.2114 3.30236 32.5138 7.376 32.5138C11.4496 32.5138 14.752 29.2114 14.752 25.1378C14.752 21.0649 11.4496 17.7618 7.376 17.7618ZM29.504 17.7618C25.4304 17.7618 22.128 21.0649 22.128 25.1378C22.128 29.2114 25.4304 32.5138 29.504 32.5138C33.5776 32.5138 36.88 29.2114 36.88 25.1378C36.88 21.0649 33.5776 17.7618 29.504 17.7618ZM7.376 20.2204C10.0918 20.2204 12.2933 22.422 12.2933 25.1378C12.2933 27.8543 10.0918 30.0551 7.376 30.0551C4.66024 30.0551 2.45867 27.8543 2.45867 25.1378C2.45867 22.422 4.66024 20.2204 7.376 20.2204ZM29.504 20.2204C32.2198 20.2204 34.4213 22.422 34.4213 25.1378C34.4213 27.8543 32.2198 30.0551 29.504 30.0551C26.7882 30.0551 24.5867 27.8543 24.5867 25.1378C24.5867 22.422 26.7882 20.2204 29.504 20.2204Z" fill="#7ED957"/>
<path d="M6.96266 35.4407C6.80086 35.4407 6.611 35.4348 6.39232 35.423C5.89364 35.4008 5.52351 35.3905 5.28119 35.3905C5.18663 35.2767 5.13934 35.1423 5.13934 34.9886C5.28488 34.9886 5.38757 34.9642 5.44668 34.9147C5.50578 34.866 5.53533 34.781 5.53533 34.6606V31.6552C5.53533 31.537 5.50578 31.4535 5.44668 31.404C5.38757 31.3553 5.28488 31.3302 5.13934 31.3302C5.13934 31.1765 5.18663 31.0428 5.28119 30.9283C5.51908 30.9283 5.88773 30.9216 6.38641 30.9076C6.60878 30.9002 6.76023 30.8958 6.8415 30.8958C7.51083 30.8958 7.98365 31.0007 8.25996 31.209C8.53774 31.4181 8.67663 31.6715 8.67663 31.9685C8.67663 32.2167 8.6131 32.4258 8.4875 32.595C8.36117 32.7627 8.15357 32.9052 7.86397 33.0234C8.24371 33.1003 8.51484 33.2229 8.67663 33.3899C8.83769 33.5554 8.91895 33.8051 8.91895 34.1375C8.91895 35.0063 8.26661 35.4407 6.96266 35.4407ZM6.78239 32.8698C7.35347 32.8698 7.63938 32.6186 7.63938 32.1162C7.63938 31.8783 7.57437 31.6929 7.44434 31.5607C7.31432 31.4292 7.11706 31.3627 6.85332 31.3627C6.73511 31.3627 6.6472 31.3708 6.59031 31.3863V32.858C6.66714 32.8661 6.73068 32.8698 6.78239 32.8698ZM6.85923 34.9738C7.45616 34.9738 7.75463 34.716 7.75463 34.1996C7.75463 33.9063 7.67928 33.6883 7.53004 33.5465C7.38229 33.4032 7.13997 33.3308 6.80308 33.3308L6.59031 33.3367V34.9561C6.7063 34.9679 6.79569 34.9738 6.85923 34.9738Z" fill="black"/>
<path d="M17.8569 31.9735C17.9411 32.0622 17.9839 32.1922 17.9839 32.3636C17.8812 32.3636 17.7992 32.3894 17.7387 32.4404C17.6796 32.4921 17.6308 32.5764 17.5939 32.6946L16.8639 34.9671C16.6726 35.5891 16.4679 36.0368 16.2493 36.3087C16.0321 36.582 15.7595 36.7194 15.4307 36.7194C15.1766 36.7194 14.98 36.6648 14.8426 36.5569C14.7067 36.4505 14.6387 36.3161 14.6387 36.155C14.6387 36.0523 14.6631 35.9607 14.7126 35.8802C14.7614 35.7989 14.8249 35.742 14.9017 35.7088C15.0155 35.8447 15.1862 35.9127 15.413 35.9127C15.5489 35.9127 15.6826 35.8462 15.8149 35.7147C15.9464 35.5825 16.0557 35.3882 16.1429 35.1325H15.6169L14.6328 32.7418C14.6247 32.7167 14.6033 32.6635 14.5678 32.5823C14.5338 32.4995 14.4917 32.4426 14.4407 32.4109C14.3898 32.3798 14.324 32.3636 14.2427 32.3636C14.2427 32.1981 14.2871 32.0681 14.3757 31.9735H15.8858C15.9877 32.0843 16.0395 32.2144 16.0395 32.3636C15.8422 32.3636 15.7439 32.4611 15.7439 32.6561C15.7439 32.733 15.7543 32.8039 15.7764 32.8689L16.3734 34.6006L16.793 32.7862C16.8063 32.7256 16.8137 32.6739 16.8137 32.6325C16.8137 32.4537 16.7088 32.3636 16.5005 32.3636C16.5005 32.1885 16.5403 32.0585 16.6216 31.9735H17.8569Z" fill="black"/>
<path d="M13.9456 34.5778C13.981 34.6177 14.0091 34.6694 14.0313 34.7345C14.0549 34.798 14.0667 34.8519 14.0667 34.897C14.0667 34.9915 14.0172 35.0846 13.919 35.1748C13.8222 35.2634 13.6914 35.3373 13.5259 35.3964C13.3619 35.4555 13.1846 35.4851 12.994 35.4851C12.6823 35.4851 12.4067 35.4149 12.1666 35.2752C11.928 35.1356 11.7425 34.9339 11.611 34.6694C11.4788 34.4035 11.413 34.0895 11.413 33.7268C11.413 33.3566 11.4839 33.0353 11.6258 32.7634C11.7691 32.49 11.9686 32.281 12.2227 32.1369C12.4769 31.9914 12.7613 31.9182 13.0768 31.9182C13.3915 31.9182 13.6382 31.9943 13.8155 32.1458C13.9929 32.2979 14.0815 32.4908 14.0815 32.725C14.0815 32.9244 14.0298 33.0811 13.9278 33.1948C13.8251 33.3071 13.6929 33.3633 13.5319 33.3633C13.3974 33.3633 13.2866 33.3145 13.1979 33.2155C13.1093 33.1173 13.0649 32.9983 13.0649 32.8579C13.0649 32.7634 13.0812 32.6851 13.1152 32.6215C13.1484 32.5587 13.195 32.5019 13.2541 32.4501C13.1868 32.411 13.1255 32.391 13.0709 32.391C12.9246 32.391 12.7968 32.4782 12.6867 32.6511C12.5759 32.8225 12.5212 33.1077 12.5212 33.5051C12.5212 33.9565 12.5869 34.2816 12.7192 34.4803C12.8507 34.6776 13.045 34.7758 13.3014 34.7758C13.4196 34.7758 13.5363 34.7596 13.653 34.7256C13.7712 34.6923 13.8687 34.6428 13.9456 34.5778Z" fill="black"/>
<path d="M10.844 30.8294C10.844 31.0126 10.7863 31.1589 10.6726 31.2667C10.5603 31.3753 10.4103 31.4293 10.2234 31.4293C10.0402 31.4293 9.89389 31.3753 9.78603 31.2667C9.67743 31.1589 9.6235 31.0126 9.6235 30.8294C9.6235 30.6506 9.67965 30.5058 9.79194 30.395C9.90424 30.2849 10.052 30.2295 10.2352 30.2295C10.4184 30.2295 10.5647 30.2849 10.6755 30.395C10.7878 30.5058 10.844 30.6506 10.844 30.8294ZM10.7228 34.6592C10.7228 34.7833 10.7531 34.872 10.8144 34.9252C10.8772 34.9784 10.9725 35.005 11.1011 35.005C11.1011 35.1372 11.0516 35.2525 10.9533 35.3507H9.50825C9.40925 35.2525 9.36049 35.1372 9.36049 35.005C9.4883 35.005 9.58065 34.9784 9.63828 34.9252C9.69516 34.872 9.72397 34.7819 9.72397 34.6533V32.8005C9.72397 32.6808 9.69516 32.5951 9.63828 32.5434C9.58065 32.4924 9.46836 32.4665 9.30139 32.4665V32.1858C9.40334 32.1208 9.57696 32.0543 9.82149 31.9848C10.0675 31.9139 10.2766 31.8785 10.448 31.8785C10.5462 31.8785 10.6164 31.9014 10.6578 31.9464C10.7006 31.99 10.7228 32.0646 10.7228 32.171V34.6592Z" fill="black"/>
<path d="M20.348 34.5778C20.3834 34.6177 20.4115 34.6694 20.4337 34.7345C20.4573 34.798 20.4691 34.8519 20.4691 34.897C20.4691 34.9915 20.4196 35.0846 20.3214 35.1748C20.2246 35.2634 20.0938 35.3373 19.9283 35.3964C19.7643 35.4555 19.587 35.4851 19.3964 35.4851C19.0847 35.4851 18.8091 35.4149 18.569 35.2752C18.3304 35.1356 18.1449 34.9339 18.0134 34.6694C17.8812 34.4035 17.8154 34.0895 17.8154 33.7268C17.8154 33.3566 17.8864 33.0353 18.0282 32.7634C18.1715 32.49 18.371 32.281 18.6251 32.1369C18.8793 31.9914 19.1637 31.9182 19.4792 31.9182C19.7939 31.9182 20.0406 31.9943 20.2179 32.1458C20.3953 32.2979 20.4839 32.4908 20.4839 32.725C20.4839 32.9244 20.4322 33.0811 20.3302 33.1948C20.2276 33.3071 20.0953 33.3633 19.9343 33.3633C19.7998 33.3633 19.689 33.3145 19.6003 33.2155C19.5117 33.1173 19.4673 32.9983 19.4673 32.8579C19.4673 32.7634 19.4836 32.6851 19.5176 32.6215C19.5508 32.5587 19.5974 32.5019 19.6565 32.4501C19.5892 32.411 19.5279 32.391 19.4733 32.391C19.327 32.391 19.1992 32.4782 19.0891 32.6511C18.9783 32.8225 18.9236 33.1077 18.9236 33.5051C18.9236 33.9565 18.9894 34.2816 19.1216 34.4803C19.2531 34.6776 19.4474 34.7758 19.7038 34.7758C19.822 34.7758 19.9387 34.7596 20.0554 34.7256C20.1736 34.6923 20.2711 34.6428 20.348 34.5778Z" fill="black"/>
<path d="M20.8512 31.2976C20.8512 31.1913 20.8194 31.1115 20.7566 31.0583C20.6953 31.0051 20.5823 30.9785 20.4168 30.9785V30.7214C20.5705 30.6372 20.764 30.5648 20.999 30.5057C21.2332 30.4451 21.4223 30.4141 21.5664 30.4141C21.6683 30.4141 21.7407 30.4362 21.7821 30.4791C21.8249 30.5227 21.8471 30.5973 21.8471 30.7037V34.6931C21.8471 34.8253 21.8737 34.9169 21.9269 34.9679C21.9801 35.0196 22.0702 35.0447 22.1988 35.0447C22.1988 35.1652 22.147 35.2804 22.0451 35.3905H20.6473C20.5483 35.2841 20.4996 35.1689 20.4996 35.0447C20.6237 35.0447 20.7131 35.0182 20.7685 34.965C20.8231 34.9118 20.8512 34.8216 20.8512 34.6931V31.2976Z" fill="black"/>
<path d="M24.3981 34.7374C24.6677 34.7374 24.9182 34.6531 25.1487 34.4832C25.1819 34.5172 25.2115 34.5682 25.2373 34.6369C25.2625 34.7041 25.2758 34.7632 25.2758 34.8142C25.2758 34.891 25.224 34.9797 25.1221 35.0801C25.0194 35.1806 24.8775 35.2678 24.6965 35.3402C24.5148 35.4111 24.3109 35.4466 24.0848 35.4466C23.7694 35.4466 23.4938 35.3786 23.2574 35.2427C23.021 35.1067 22.8385 34.9088 22.7107 34.6487C22.5822 34.3886 22.5186 34.0813 22.5186 33.7267C22.5186 33.3647 22.5873 33.047 22.7255 32.7751C22.8651 32.5018 23.0564 32.292 23.2988 32.1457C23.5426 31.998 23.8174 31.9241 24.1233 31.9241C24.5111 31.9241 24.8207 32.0378 25.0512 32.2639C25.2817 32.4885 25.3969 32.8017 25.3969 33.2036C25.3969 33.3913 25.3659 33.539 25.3053 33.6469C25.2462 33.7555 25.1406 33.8094 24.9891 33.8094H23.6061C23.6312 34.4285 23.8957 34.7374 24.3981 34.7374ZM24.0848 32.3644C23.9526 32.3644 23.841 32.4383 23.7509 32.586C23.6623 32.7338 23.6135 32.9805 23.6061 33.3248H24.2533C24.3198 33.3248 24.3641 33.3012 24.3863 33.2539C24.4077 33.2066 24.4188 33.1349 24.4188 33.0382C24.4188 32.7862 24.3877 32.6111 24.3272 32.5121C24.2681 32.4139 24.1868 32.3644 24.0848 32.3644Z" fill="black"/>
<path d="M25.7048 34.4892C25.7048 34.204 25.7979 33.9779 25.9856 33.8124C26.1725 33.6455 26.4495 33.5612 26.816 33.5612C26.9438 33.5612 27.0745 33.5745 27.209 33.5997C27.3427 33.6255 27.4528 33.6602 27.54 33.7031V32.852C27.54 32.6806 27.4964 32.5587 27.4099 32.4856C27.325 32.411 27.2105 32.3733 27.0671 32.3733C26.9253 32.3733 26.8101 32.4073 26.7214 32.4738C26.8019 32.4996 26.8618 32.5439 26.9017 32.6067C26.943 32.6681 26.9637 32.7368 26.9637 32.8136C26.9637 32.9495 26.9142 33.0611 26.816 33.1475C26.717 33.2325 26.5943 33.2746 26.4466 33.2746C26.2826 33.2746 26.1518 33.2273 26.0535 33.1328C25.9568 33.0382 25.9087 32.917 25.9087 32.7693C25.9087 32.62 25.9597 32.4789 26.0624 32.3467C26.1644 32.2152 26.321 32.1088 26.5323 32.0275C26.7428 31.947 27.0036 31.9064 27.3154 31.9064C27.7365 31.9064 28.0556 31.9935 28.2728 32.1664C28.4915 32.3378 28.6009 32.5905 28.6009 32.9229V34.6162C28.6009 34.8216 28.6984 34.9457 28.8934 34.9886V35.1925C28.838 35.2693 28.7464 35.3299 28.6186 35.3727C28.49 35.4141 28.36 35.4348 28.2285 35.4348C27.9389 35.4348 27.735 35.3343 27.6168 35.1334C27.5178 35.2205 27.3981 35.2922 27.2563 35.3491C27.1159 35.406 26.9563 35.4348 26.7775 35.4348C26.4584 35.4348 26.1991 35.3476 26.0003 35.1718C25.8031 34.9945 25.7048 34.7669 25.7048 34.4892ZM27.54 34.1936C27.4927 34.1641 27.4351 34.1397 27.3686 34.1198C27.3036 34.0983 27.24 34.0873 27.1794 34.0873C27.0612 34.0873 26.9637 34.1249 26.8869 34.1996C26.8101 34.2727 26.7716 34.3798 26.7716 34.5217C26.7716 34.6362 26.8101 34.7307 26.8869 34.8054C26.9637 34.8807 27.0657 34.9176 27.1942 34.9176C27.257 34.9176 27.3191 34.908 27.3804 34.8881C27.4432 34.8689 27.4964 34.8438 27.54 34.8142V34.1936Z" fill="black"/>
<path d="M31.3489 31.9182C31.5417 31.9182 31.6828 31.9677 31.7715 32.066C31.8616 32.1627 31.9074 32.2965 31.9074 32.4679C31.9074 32.6511 31.8587 32.8011 31.7626 32.917C31.6658 33.0316 31.5366 33.0884 31.3755 33.0884C31.2351 33.0884 31.1214 33.0485 31.0327 32.9673C30.9455 32.8868 30.9027 32.79 30.9027 32.6777C30.9027 32.6112 30.9086 32.558 30.9204 32.5181C30.7667 32.558 30.6367 32.6237 30.5303 32.7161V34.6369C30.5303 34.7433 30.5451 34.8246 30.5747 34.8793C30.6057 34.9347 30.6648 34.976 30.752 35.0034C30.8384 35.0314 30.9692 35.0447 31.145 35.0447C31.145 35.1216 31.1361 35.1866 31.1184 35.2398C31.1022 35.293 31.0711 35.3432 31.0238 35.3905H29.3158C29.2168 35.2922 29.168 35.177 29.168 35.0447C29.2921 35.0447 29.3808 35.0181 29.434 34.965C29.4872 34.9118 29.5138 34.8216 29.5138 34.6931V32.8461C29.5138 32.7301 29.4827 32.6496 29.4222 32.6038C29.3608 32.5565 29.2508 32.5329 29.0912 32.5329V32.2433C29.233 32.1627 29.4199 32.0918 29.6527 32.0305C29.8846 31.9677 30.0649 31.9359 30.1934 31.9359C30.2954 31.9359 30.3678 31.9729 30.4092 32.0453C30.452 32.1184 30.4742 32.2632 30.4742 32.4797C30.551 32.3364 30.6722 32.2071 30.8377 32.0926C31.0046 31.9766 31.1753 31.9182 31.3489 31.9182Z" fill="black"/>
<path d="M10.9131 38.3261C10.9131 38.5669 10.8518 38.7561 10.7299 38.8935C10.6095 39.0316 10.441 39.1003 10.2245 39.1003C10.0014 39.1003 9.83004 39.0339 9.71035 38.8994C9.58993 38.7635 9.53009 38.5714 9.53009 38.3231C9.53009 38.0793 9.58993 37.8902 9.71035 37.7558C9.83225 37.622 10.0036 37.5548 10.2245 37.5548C10.441 37.5548 10.6095 37.6243 10.7299 37.7617C10.8518 37.8976 10.9131 38.086 10.9131 38.3261ZM9.71626 38.3261C9.71626 38.5293 9.75911 38.6837 9.84629 38.7901C9.93273 38.895 10.0591 38.9467 10.2245 38.9467C10.39 38.9467 10.5149 38.895 10.5998 38.7901C10.6841 38.6859 10.7269 38.5315 10.7269 38.3261C10.7269 38.1251 10.6841 37.973 10.5998 37.8681C10.5171 37.7639 10.3915 37.7114 10.2245 37.7114C10.0591 37.7114 9.93273 37.7639 9.84629 37.8681C9.75911 37.973 9.71626 38.1251 9.71626 38.3261Z" fill="black"/>
<path d="M11.9628 37.9331C12.0116 37.9331 12.0574 37.9375 12.0987 37.9449L12.0751 38.1045C12.0278 38.0949 11.9864 38.0897 11.951 38.0897C11.8601 38.0897 11.7825 38.1274 11.7175 38.202C11.6525 38.2752 11.62 38.3668 11.62 38.4768V39.0797H11.4486V37.9538H11.5905L11.6082 38.1636H11.6171C11.6584 38.089 11.7087 38.0321 11.7678 37.9922C11.8269 37.9531 11.8919 37.9331 11.9628 37.9331Z" fill="black"/>
<path d="M13.3028 38.929H13.291C13.2119 39.0435 13.0945 39.1004 12.9393 39.1004C12.7916 39.1004 12.6763 39.0501 12.5936 38.9497C12.5123 38.8492 12.4724 38.7066 12.4724 38.5212C12.4724 38.3343 12.5123 38.1894 12.5936 38.0868C12.6763 37.9848 12.7916 37.9331 12.9393 37.9331C13.0908 37.9331 13.2082 37.9885 13.291 38.0986H13.3028L13.291 37.939V37.481H13.4624V39.0797H13.3235L13.3028 38.929ZM12.96 38.9585C13.076 38.9585 13.1595 38.9275 13.2112 38.864C13.2644 38.7989 13.291 38.697 13.291 38.5566V38.5212C13.291 38.3616 13.2644 38.2478 13.2112 38.1784C13.1595 38.1097 13.0753 38.0749 12.9571 38.0749C12.8581 38.0749 12.7827 38.1148 12.7295 38.1931C12.6763 38.27 12.6497 38.3793 12.6497 38.5212C12.6497 38.6652 12.6748 38.7746 12.7266 38.8492C12.7797 38.9223 12.8573 38.9585 12.96 38.9585Z" fill="black"/>
<path d="M14.5264 39.1004C14.3609 39.1004 14.2294 39.0501 14.1333 38.9497C14.0365 38.8477 13.9885 38.7066 13.9885 38.5271C13.9885 38.3439 14.0329 38.1991 14.1215 38.0927C14.2116 37.9863 14.3321 37.9331 14.482 37.9331C14.6239 37.9331 14.7347 37.9796 14.816 38.072C14.8987 38.1651 14.9401 38.287 14.9401 38.4384V38.5478H14.1658C14.1695 38.68 14.2028 38.7805 14.2663 38.8492C14.3291 38.9186 14.4178 38.9526 14.5323 38.9526C14.6542 38.9526 14.7746 38.9275 14.8928 38.8758V39.0265C14.8315 39.0524 14.7746 39.0708 14.7214 39.0827C14.6682 39.0945 14.6032 39.1004 14.5264 39.1004ZM14.482 38.075C14.3912 38.075 14.318 38.1045 14.2634 38.1636C14.2102 38.2227 14.1784 38.3047 14.1688 38.4089H14.7569C14.7569 38.301 14.7332 38.2183 14.6859 38.1607C14.6387 38.1038 14.5707 38.075 14.482 38.075Z" fill="black"/>
<path d="M15.9721 37.9331C16.0209 37.9331 16.0667 37.9375 16.1081 37.9449L16.0844 38.1045C16.0372 38.0949 15.9958 38.0897 15.9603 38.0897C15.8694 38.0897 15.7919 38.1274 15.7269 38.202C15.6619 38.2752 15.6293 38.3668 15.6293 38.4768V39.0797H15.4579V37.9538H15.5998L15.6175 38.1636H15.6264C15.6678 38.089 15.718 38.0321 15.7771 37.9922C15.8362 37.9531 15.9012 37.9331 15.9721 37.9331Z" fill="black"/>
<path d="M16.7152 39.0797H16.5438V37.481H16.7152V39.0797Z" fill="black"/>
<path d="M17.1257 37.9537H17.309L17.5542 38.595C17.6074 38.7428 17.6407 38.8491 17.6547 38.9142H17.6636C17.671 38.8787 17.6887 38.8188 17.7168 38.7339C17.7463 38.6497 17.8394 38.3896 17.9975 37.9537H18.1807L17.6961 39.2363C17.6488 39.3619 17.5926 39.452 17.5276 39.5052C17.4641 39.5584 17.3865 39.585 17.2942 39.585C17.241 39.585 17.1893 39.5791 17.1405 39.5672V39.4313C17.1774 39.4387 17.2188 39.4431 17.2646 39.4431C17.3828 39.4431 17.4663 39.3766 17.5158 39.2451L17.5779 39.0855L17.1257 37.9537Z" fill="black"/>
<path d="M20.0346 37.7114C19.8691 37.7114 19.7376 37.7668 19.6416 37.8769C19.547 37.9877 19.4997 38.1384 19.4997 38.3291C19.4997 38.5263 19.5448 38.6778 19.6357 38.7841C19.728 38.8905 19.8603 38.9437 20.0317 38.9437C20.1358 38.9437 20.2548 38.9253 20.3892 38.8876V39.0412C20.2843 39.0804 20.1565 39.1003 20.0051 39.1003C19.782 39.1003 19.6106 39.0339 19.4909 38.8994C19.3704 38.7657 19.3106 38.5743 19.3106 38.3261C19.3106 38.1724 19.3387 38.038 19.3963 37.9212C19.4554 37.803 19.5389 37.7129 19.6475 37.6494C19.7576 37.5866 19.8869 37.5548 20.0346 37.5548C20.192 37.5548 20.3301 37.5844 20.4483 37.6435L20.3745 37.7912C20.2599 37.738 20.1469 37.7114 20.0346 37.7114Z" fill="black"/>
<path d="M20.7407 37.9537H20.9239L21.1692 38.595C21.2223 38.7428 21.2556 38.8491 21.2696 38.9142H21.2785C21.2859 38.8787 21.3036 38.8188 21.3317 38.7339C21.3612 38.6497 21.4543 38.3896 21.6124 37.9537H21.7956L21.311 39.2363C21.2637 39.3619 21.2076 39.452 21.1426 39.5052C21.079 39.5584 21.0015 39.585 20.9091 39.585C20.8559 39.585 20.8042 39.5791 20.7554 39.5672V39.4313C20.7924 39.4387 20.8337 39.4431 20.8796 39.4431C20.9978 39.4431 21.0812 39.3766 21.1307 39.2451L21.1928 39.0855L20.7407 37.9537Z" fill="black"/>
<path d="M22.6543 39.1004C22.4925 39.1004 22.3662 39.0501 22.276 38.9497C22.1874 38.8492 22.1431 38.7073 22.1431 38.5241C22.1431 38.335 22.1881 38.1895 22.279 38.0868C22.3691 37.9848 22.4984 37.9331 22.6661 37.9331C22.7208 37.9331 22.7755 37.939 22.8287 37.9508C22.8833 37.9627 22.9262 37.9767 22.9557 37.9922L22.9055 38.137C22.8656 38.1215 22.8235 38.1089 22.7784 38.0986C22.7348 38.089 22.6964 38.0838 22.6632 38.0838C22.4341 38.0838 22.3204 38.2301 22.3204 38.5212C22.3204 38.6593 22.3477 38.7657 22.4031 38.8403C22.4578 38.9157 22.5405 38.9526 22.6513 38.9526C22.7459 38.9526 22.842 38.9319 22.941 38.8906V39.0413C22.8656 39.0804 22.7703 39.1004 22.6543 39.1004Z" fill="black"/>
<path d="M23.6051 39.0797H23.4337V37.481H23.6051V39.0797Z" fill="black"/>
<path d="M24.3643 39.0797H24.1929V37.9538H24.3643V39.0797ZM24.1782 37.6494C24.1782 37.6103 24.1878 37.5815 24.2077 37.5637C24.2269 37.5445 24.2506 37.5342 24.2786 37.5342C24.306 37.5342 24.3296 37.5445 24.3496 37.5637C24.3688 37.5815 24.3791 37.6103 24.3791 37.6494C24.3791 37.6871 24.3688 37.7159 24.3496 37.7351C24.3296 37.7529 24.306 37.7617 24.2786 37.7617C24.2506 37.7617 24.2269 37.7529 24.2077 37.7351C24.1878 37.7159 24.1782 37.6871 24.1782 37.6494Z" fill="black"/>
<path d="M25.7235 39.0797V38.3527C25.7235 38.2604 25.7028 38.1917 25.6614 38.1459C25.6201 38.1008 25.5536 38.0779 25.4634 38.0779C25.3467 38.0779 25.261 38.1104 25.2064 38.1754C25.1509 38.239 25.1236 38.3431 25.1236 38.4887V39.0797H24.9522V37.9538H25.0911L25.1207 38.1075H25.1266C25.162 38.0528 25.2108 38.0099 25.2743 37.9804C25.3371 37.9494 25.4073 37.9331 25.4841 37.9331C25.6201 37.9331 25.722 37.9656 25.7915 38.0306C25.8602 38.0956 25.8949 38.2005 25.8949 38.3439V39.0797H25.7235Z" fill="black"/>
<path d="M27.3924 37.9538V38.0602L27.1826 38.0868C27.2018 38.1104 27.2188 38.1422 27.2329 38.1813C27.2484 38.219 27.2565 38.2626 27.2565 38.3114C27.2565 38.4222 27.2188 38.5108 27.1442 38.5773C27.0688 38.6423 26.9654 38.6748 26.8339 38.6748C26.7999 38.6748 26.7689 38.6719 26.7394 38.666C26.6662 38.7037 26.63 38.7517 26.63 38.8108C26.63 38.8425 26.6426 38.8662 26.6684 38.8817C26.6935 38.8957 26.7371 38.9024 26.7985 38.9024H26.9994C27.1213 38.9024 27.2151 38.9282 27.2801 38.9792C27.3452 39.0309 27.3777 39.1041 27.3777 39.2009C27.3777 39.3264 27.3274 39.4225 27.2269 39.4875C27.128 39.5525 26.9824 39.585 26.7896 39.585C26.6433 39.585 26.5303 39.5569 26.4497 39.5023C26.3707 39.4469 26.3315 39.37 26.3315 39.2718C26.3315 39.2023 26.353 39.1425 26.3966 39.0915C26.4394 39.0428 26.5007 39.0088 26.5798 38.991C26.5517 38.9777 26.5281 38.9578 26.5089 38.9319C26.4889 38.9046 26.4793 38.8721 26.4793 38.8344C26.4793 38.793 26.4896 38.7576 26.5118 38.728C26.5332 38.697 26.568 38.6675 26.6152 38.6394C26.5576 38.6143 26.5103 38.5729 26.4734 38.5153C26.4357 38.4584 26.4172 38.3926 26.4172 38.3173C26.4172 38.1954 26.4542 38.1008 26.5295 38.0336C26.6042 37.9671 26.7083 37.9331 26.8428 37.9331C26.9019 37.9331 26.9551 37.9405 27.0024 37.9538H27.3924ZM26.4941 39.2688C26.4941 39.3294 26.5192 39.3759 26.5709 39.4077C26.6219 39.4387 26.6958 39.455 26.7925 39.455C26.9359 39.455 27.0423 39.4328 27.1117 39.39C27.1804 39.3464 27.2151 39.288 27.2151 39.2156C27.2151 39.1543 27.1952 39.1122 27.156 39.0886C27.1183 39.0649 27.0474 39.0531 26.9433 39.0531H26.7394C26.6625 39.0531 26.6019 39.0723 26.5591 39.1092C26.5155 39.1462 26.4941 39.1994 26.4941 39.2688ZM26.5857 38.3143C26.5857 38.3934 26.6078 38.4532 26.6537 38.4946C26.6987 38.5345 26.7608 38.5537 26.8398 38.5537C27.0053 38.5537 27.0881 38.4732 27.0881 38.3114C27.0881 38.1422 27.0038 38.0572 26.8369 38.0572C26.7556 38.0572 26.6935 38.0794 26.6507 38.1222C26.6071 38.1658 26.5857 38.2301 26.5857 38.3143Z" fill="black"/>
</svg>
